<svg xmlns="http://www.w3.org/2000/svg" viewBox="0 0 128 128"><defs><style>.cls-1{isolation:isolate;}.cls-2{mix-blend-mode:multiply;}.cls-3{fill:#d4dfea;}.cls-4{fill:#e05951;}.cls-5{fill:#093357;}.cls-6{fill:#fff;}.cls-7{fill:#489de3;}</style></defs><title>calendar</title><g class="cls-1"><g id="icons" class="cls-2"><path class="cls-3" d="M16,108a4,4,0,0,0,4,4h88a4,4,0,0,0,4-4V48H16Z"/><path class="cls-4" d="M108,22H20a4,4,0,0,0-4,4V48h96V26A4,4,0,0,0,108,22Z"/><path class="cls-5" d="M32,28a2,2,0,0,1-2-2V18a2,2,0,0,1,4,0v8A2,2,0,0,1,32,28Z"/><path class="cls-5" d="M96,28a2,2,0,0,1-2-2V18a2,2,0,0,1,4,0v8A2,2,0,0,1,96,28Z"/><rect class="cls-6" x="26" y="58" width="12" height="12"/><rect class="cls-6" x="42" y="58" width="12" height="12"/><rect class="cls-6" x="58" y="58" width="12" height="12"/><rect class="cls-6" x="74" y="58" width="12" height="12"/><rect class="cls-6" x="90" y="58" width="12" height="12"/><rect class="cls-6" x="26" y="74" width="12" height="12"/><rect class="cls-7" x="42" y="74" width="12" height="12"/><rect class="cls-6" x="58" y="74" width="12" height="12"/><rect class="cls-6" x="74" y="74" width="12" height="12"/><rect class="cls-6" x="90" y="74" width="12" height="12"/><rect class="cls-6" x="26" y="90" width="12" height="12"/><rect class="cls-6" x="42" y="90" width="12" height="12"/><rect class="cls-6" x="58" y="90" width="12" height="12"/><rect class="cls-6" x="74" y="90" width="12" height="12"/></g></g></svg>